<svg id="Layer_1" data-name="Layer 1" xmlns="http://www.w3.org/2000/svg" width="100%" height="100%" viewBox="0 0 833 216"><defs><style>.cls-1{fill:#fff;}</style></defs><title>LadiPage-Logo-White</title><path class="cls-1" d="M424.2,47.1a10,10,0,0,0-10,10v10h10a10,10,0,0,0,10-10v-10Z"/><path class="cls-1" d="M272.3,130.8"/><path class="cls-1" d="M280.9,81.9H301v86.8H280.9v-9.1q-12.4,11.6-26.6,11.6-18,0-29.8-13T212.9,125q0-19.5,11.7-32.5a37.6,37.6,0,0,1,29.2-13q15.1,0,27.2,12.5ZM233.3,125q0,12.5,6.7,20.3a21.9,21.9,0,0,0,17.3,7.9q11.1,0,18-7.7t6.9-20.1q0-12.2-6.9-20.1t-17.8-7.7a22.2,22.2,0,0,0-17.3,7.8Q233.3,113.3,233.3,125Z"/><path class="cls-1" d="M615.2,81.9h20.1v86.8H615.2v-9.1q-12.4,11.6-26.6,11.6-18,0-29.8-13T547.1,125q0-19.5,11.7-32.5a37.6,37.6,0,0,1,29.2-13q15.1,0,27.2,12.5ZM567.6,125q0,12.5,6.7,20.3a21.9,21.9,0,0,0,17.3,7.9q11.1,0,18-7.7t6.9-20.1q0-12.2-6.9-20.1t-17.8-7.7a22.2,22.2,0,0,0-17.3,7.8Q567.6,113.3,567.6,125Z"/><path class="cls-1" d="M736.2,166.6q0,6.1-.4,10.8a75.4,75.4,0,0,1-1.1,8.2,36.7,36.7,0,0,1-8.4,16.8Q714.6,216,694,216q-17.4,0-28.6-9.4T652,180h20.1q1.2,6.4,3.8,9.9,6.2,8.1,18.2,8.1,22,0,22-27V158.9q-11.9,12.2-27.5,12.2-17.7,0-29-12.8t-11.4-32.5q0-19,10.6-32.2t30.1-14.1a35,35,0,0,1,27.3,12.2V81.9h20ZM717,125.4q0-12.6-6.8-20.2a22.4,22.4,0,0,0-17.5-7.7q-11.4,0-18,8.5t-6,19.6q0,11.8,6,19.4t18,8.3q11.5,0,18.2-8.4T717,125.4Z"/><path class="cls-1" d="M832.2,130H770.1q.8,10.7,6.9,17t15.8,6.2q7.5,0,12.4-3.6t11-13.2l16.9,9.4a67.4,67.4,0,0,1-8.3,11.4,44.1,44.1,0,0,1-9.4,7.8,37.5,37.5,0,0,1-10.8,4.5,52.5,52.5,0,0,1-12.6,1.4q-19.4,0-31.2-12.5t-11.8-33.3q0-20.6,11.4-33.3T791,79.4q19.2,0,30.3,12.2t11,33.6Zm-20.6-16.4q-4.2-16-20.2-16a20.8,20.8,0,0,0-6.9,1.1,19.6,19.6,0,0,0-5.8,3.2,20.3,20.3,0,0,0-4.5,5,23.4,23.4,0,0,0-2.9,6.7Z"/><path class="cls-1" d="M190.4,34.7a10,10,0,0,0-10,10V168.6h20V34.7Z"/><path class="cls-1" d="M391.6,34.7a10.1,10.1,0,0,0-10.1,10h0V91.9q-12-12.5-27.3-12.5a37.2,37.2,0,0,0-29.1,13.1q-11.7,13-11.7,32.4t11.7,33.1q11.8,13,29.6,13,15,0,26.8-11.6v9.1h20.1V34.7ZM375.9,145.5q-6.9,7.7-18,7.7a21.9,21.9,0,0,1-17.3-7.9Q334,137.4,334,125t6.9-19.6a22.2,22.2,0,0,1,17.3-7.8q11,0,17.8,7.7t6.9,20.1Q382.8,137.6,375.9,145.5Z"/><rect class="cls-1" x="414.1" y="81.9" width="20" height="86.76"/><path class="cls-1" d="M523,92.6q-11.6-13.2-29.5-13.2-15.1,0-26.9,11.8h0V81.9h-20V205.7h0v9.9h10.1a10,10,0,0,0,9.9-10V158.9h0q12,12.2,27.3,12.2,17.6,0,29.2-12.9t11.7-32.5Q534.8,105.7,523,92.6Zm-15.7,52.7a21.7,21.7,0,0,1-17.2,7.8q-11,0-17.8-7.7a27.1,27.1,0,0,1-5.7-10.8,35.6,35.6,0,0,1-1.2-9.3,36.3,36.3,0,0,1,1.2-9.4,25.8,25.8,0,0,1,5.7-10.7q6.9-7.7,17.9-7.7a21.9,21.9,0,0,1,17.3,7.9q6.8,7.8,6.8,20.3T507.3,145.4Z"/><path class="cls-1" d="M89.9,11.5A145.9,145.9,0,0,0,72.8,0,145.5,145.5,0,0,0,31,216a127.9,127.9,0,0,1,41.8-48.8,128.1,128.1,0,0,1,31.8,31.8,127.3,127.3,0,0,1,10,17.1,145.9,145.9,0,0,0,11.5-17.1,144.7,144.7,0,0,0,18.4-54.6,147,147,0,0,0,1.1-18.2A145.4,145.4,0,0,0,89.9,11.5Zm24.7,170.4a146.5,146.5,0,0,0-24.7-24.7,145.9,145.9,0,0,0-17.1-11.5A146.2,146.2,0,0,0,31,181.9a126.5,126.5,0,0,1-11.3-36,128.3,128.3,0,0,1-1.5-18.6c0-.4,0-.8,0-1.1A127.3,127.3,0,0,1,72.8,21.6a127.3,127.3,0,0,1,54.6,104.6c0,.4,0,.8,0,1.1a128.3,128.3,0,0,1-1.5,18.6A126.5,126.5,0,0,1,114.6,181.9Z"/><path class="cls-1" d="M54.6,91,82.1,58a27.3,27.3,0,0,0-21.5,50.1l9.5-19Z"/><path class="cls-1" d="M85,59.3l-9.5,19L91,76.4l-27.5,33A27.3,27.3,0,0,0,85,59.3Z"/></svg>